<svg width="53" height="14" viewBox="0 0 53 14" fill="none" xmlns="http://www.w3.org/2000/svg">
<path d="M9.44212 12.0096L9.39404 13.0673H0.644043V1.24038H9.0575L9.10558 2.34615H1.84597V6.43269H8.09597V7.39423H1.84597V12.0096H9.44212V12.0096Z" fill="#57AD56" stroke="#57AD56" stroke-width="0.25"/>
<path fill-rule="evenodd" clip-rule="evenodd" d="M16.7017 9.99038H23.6729L25.019 13.0673H26.3652L20.9325 1.24038H19.5383L14.0575 13.0673H15.3556L16.7017 9.99038ZM17.1344 8.98077L19.6825 3.25962L20.1633 2.05769H20.2114L20.6921 3.25962L23.1921 8.98077H17.1344Z" fill="#57AD56"/>
<path d="M23.6729 9.99038L23.7874 9.94028L23.7546 9.86538H23.6729V9.99038ZM16.7017 9.99038V9.86538H16.62L16.5872 9.94028L16.7017 9.99038ZM25.019 13.0673L24.9045 13.1174L24.9373 13.1923H25.019V13.0673ZM26.3652 13.0673V13.1923H26.5602L26.4788 13.0151L26.3652 13.0673ZM20.9325 1.24038L21.0461 1.18821L21.0126 1.11538H20.9325V1.24038ZM19.5383 1.24038V1.11538H19.4584L19.4249 1.18783L19.5383 1.24038ZM14.0575 13.0673L13.9441 13.0148L13.8618 13.1923H14.0575V13.0673ZM15.3556 13.0673V13.1923H15.4373L15.4701 13.1174L15.3556 13.0673ZM19.6825 3.25962L19.7968 3.31051L19.7986 3.30604L19.6825 3.25962ZM17.1344 8.98077L17.0202 8.92991L16.9419 9.10577H17.1344V8.98077ZM20.1633 2.05769V1.93269H20.0786L20.0472 2.01127L20.1633 2.05769ZM20.2114 2.05769L20.3274 2.01127L20.296 1.93269H20.2114V2.05769ZM20.6921 3.25962L20.576 3.30606L20.5776 3.30967L20.6921 3.25962ZM23.1921 8.98077V9.10577H23.3832L23.3067 8.93072L23.1921 8.98077ZM23.6729 9.86538H16.7017V10.1154H23.6729V9.86538ZM25.1336 13.0172L23.7874 9.94028L23.5584 10.0405L24.9045 13.1174L25.1336 13.0172ZM26.3652 12.9423H25.019V13.1923H26.3652V12.9423ZM20.8189 1.29256L26.2516 13.1195L26.4788 13.0151L21.0461 1.18821L20.8189 1.29256ZM19.5383 1.36538H20.9325V1.11538H19.5383V1.36538ZM14.1709 13.1199L19.6517 1.29294L19.4249 1.18783L13.9441 13.0148L14.1709 13.1199ZM15.3556 12.9423H14.0575V13.1923H15.3556V12.9423ZM16.5872 9.94028L15.2411 13.0172L15.4701 13.1174L16.8163 10.0405L16.5872 9.94028ZM19.5683 3.20876L17.0202 8.92991L17.2486 9.03163L19.7967 3.31047L19.5683 3.20876ZM20.0472 2.01127L19.5664 3.21319L19.7986 3.30604L20.2793 2.10412L20.0472 2.01127ZM20.2114 1.93269H20.1633V2.18269H20.2114V1.93269ZM20.8082 3.21319L20.3274 2.01127L20.0953 2.10412L20.5761 3.30604L20.8082 3.21319ZM23.3067 8.93072L20.8067 3.20956L20.5776 3.30967L23.0776 9.03082L23.3067 8.93072ZM17.1344 9.10577H23.1921V8.85577H17.1344V9.10577Z" fill="#57AD56"/>
<path d="M35.019 2.34615V13.0673H33.8171V2.34615H29.394L29.4421 1.24038H39.4902V2.34615H35.019Z" fill="#57AD56" stroke="#57AD56" stroke-width="0.25"/>
<path d="M48.0479 13.3077C46.4133 13.3077 45.1152 12.9231 44.0575 12.2981L44.2498 11.2404C45.3556 11.8654 46.6056 12.25 48.096 12.25C50.3075 12.25 51.4613 11.2404 51.4613 9.79808C51.4613 6.67308 44.2498 8.30769 44.2498 4.26923C44.2498 2.53846 45.5479 1 48.5767 1C49.971 1 51.221 1.24038 52.2306 1.72115L52.0383 2.73077C50.9325 2.29808 49.8748 2.05769 48.6248 2.05769C46.269 2.05769 45.4037 3.11538 45.4037 4.17308C45.4037 7.15385 52.6152 5.47115 52.6152 9.70192C52.5671 11.8173 51.0287 13.3077 48.0479 13.3077V13.3077Z" fill="#57AD56" stroke="#57AD56" stroke-width="0.25"/>
</svg>
